<svg width="156" height="28" viewBox="0 0 156 28" fill="none" xmlns="http://www.w3.org/2000/svg">
<g clip-path="url(#clip0_1464_133067)">
<path d="M155.271 5.47653C155.271 5.94802 155.148 6.38641 154.91 6.79999C154.671 7.21357 154.342 7.53616 153.923 7.76777C153.504 8.00765 153.052 8.12345 152.575 8.12345C152.098 8.12345 151.646 8.00765 151.227 7.76777C150.808 7.52789 150.479 7.2053 150.24 6.79999C150.002 6.38641 149.879 5.94802 149.879 5.47653C149.879 5.10431 149.953 4.76518 150.084 4.44258C150.224 4.11999 150.421 3.83876 150.668 3.59888C150.914 3.359 151.21 3.16876 151.539 3.02814C151.868 2.88752 152.213 2.82135 152.567 2.82135C152.92 2.82135 153.282 2.88752 153.611 3.02814C153.94 3.16876 154.227 3.35073 154.474 3.59061C154.72 3.83049 154.91 4.11172 155.049 4.43431C155.189 4.75691 155.255 5.10431 155.255 5.47653H155.271ZM154.597 5.41863C154.597 5.1374 154.548 4.87271 154.441 4.63283C154.334 4.39296 154.194 4.17789 154.005 3.98765C153.816 3.7974 153.602 3.65678 153.356 3.54925C153.109 3.44999 152.846 3.39209 152.583 3.39209C152.32 3.39209 152.057 3.44172 151.81 3.54925C151.564 3.65678 151.342 3.7974 151.161 3.97937C150.98 4.16135 150.832 4.37641 150.725 4.62456C150.618 4.87271 150.569 5.1374 150.569 5.41036C150.569 5.78258 150.66 6.12172 150.84 6.42777C151.021 6.73382 151.268 6.98197 151.572 7.16394C151.876 7.34592 152.221 7.4369 152.583 7.4369C152.945 7.4369 153.29 7.34592 153.602 7.16394C153.915 6.98197 154.153 6.73382 154.334 6.42777C154.515 6.12172 154.605 5.77431 154.605 5.41036L154.597 5.41863ZM153.849 6.75863H153.06C152.912 6.46086 152.789 6.22098 152.682 6.04728C152.575 5.87357 152.493 5.76604 152.435 5.73296C152.369 5.69987 152.287 5.68332 152.197 5.68332V6.75863H151.531V4.06209H152.723C153.019 4.06209 153.257 4.11999 153.43 4.24407C153.602 4.36814 153.693 4.55839 153.693 4.82308C153.693 5.06296 153.619 5.23666 153.471 5.35246C153.323 5.46826 153.159 5.53444 152.97 5.57579C153.117 5.64197 153.233 5.72468 153.307 5.82394C153.389 5.9232 153.479 6.08036 153.594 6.29542L153.841 6.75863H153.849ZM153.019 4.86444C153.019 4.74863 152.97 4.66592 152.879 4.60802C152.789 4.55012 152.665 4.5253 152.517 4.5253H152.205V5.1953H152.493C152.665 5.1953 152.797 5.17049 152.879 5.12086C152.961 5.07123 153.011 4.98024 153.011 4.86444H153.019Z" fill="white"/>
<path d="M32.303 23.8726C34.5718 23.8726 36.2734 22.8469 37.1777 21.5152L40.5398 23.4921C38.7971 26.0811 35.9611 27.6362 32.2619 27.6362C26.0227 27.6362 21.9783 23.3349 21.9783 17.6275C21.9783 11.9946 26.0227 7.6189 31.9578 7.6189C37.8929 7.6189 41.4523 12.1848 41.4523 17.6606C41.4523 18.2314 41.3783 18.8435 41.3043 19.3728H26.2528C26.894 22.3424 29.2779 23.8643 32.303 23.8643V23.8726ZM37.3339 16.0394C36.7667 12.7638 34.3828 11.3577 31.9249 11.3577C28.8587 11.3577 26.779 13.1857 26.2117 16.0394H37.3256H37.3339Z" fill="white"/>
<path d="M57.4492 8.12344H61.5347V27.1481H57.4492V8.12344Z" fill="white"/>
<path d="M71.358 7.77604V8.15654H75.4928V12.1104H71.358V27.1812H67.2725V12.1104H64.8064V8.15654H67.2725V7.77604C67.2725 2.63938 69.8208 -0.330131 75.4928 0.0503631V4.00419C72.6157 3.7395 71.358 4.83962 71.358 7.76777V7.77604Z" fill="white"/>
<path d="M76.7341 17.6689C76.7341 12.0028 81.1978 7.66025 86.7136 7.66025C92.2295 7.66025 96.6931 11.9946 96.6931 17.6689C96.6931 23.3432 92.2706 27.6775 86.7136 27.6775C81.1567 27.6775 76.7341 23.3019 76.7341 17.6689ZM92.6158 17.6689C92.6158 14.2031 90.0429 11.6554 86.7136 11.6554C83.3844 11.6554 80.8114 14.2031 80.8114 17.6689C80.8114 21.1347 83.3844 23.6823 86.7136 23.6823C90.0429 23.6823 92.6158 21.1347 92.6158 17.6689Z" fill="white"/>
<path d="M109.204 7.81742V12.2675C106.516 12.0773 103.426 13.3346 103.426 17.5945V27.1812H99.3401V8.15655H103.426V11.3494C104.56 8.76038 106.821 7.80914 109.204 7.80914V7.81742Z" fill="white"/>
<path d="M54.161 7.78433V12.2345C51.473 12.0442 48.3821 13.3015 48.3821 17.5614V27.1482H44.2966V8.12347H48.3821V11.3163C49.5165 8.7273 51.7771 7.77606 54.161 7.77606V7.78433Z" fill="white"/>
<path d="M110.388 17.6358C110.388 11.9698 114.663 7.62717 120.368 7.62717C124.075 7.62717 127.289 9.57099 128.802 12.5322L125.283 14.5836C124.453 12.7969 122.595 11.6554 120.327 11.6554C116.997 11.6554 114.465 14.2031 114.465 17.6275C114.465 21.052 116.997 23.5996 120.327 23.5996C122.595 23.5996 124.445 22.4168 125.357 20.6715L128.876 22.6898C127.289 25.6924 124.075 27.6362 120.368 27.6362C114.655 27.6362 110.388 23.2605 110.388 17.6275V17.6358Z" fill="white"/>
<path d="M141.025 23.8726C143.294 23.8726 144.996 22.8469 145.9 21.5152L149.262 23.4921C147.519 26.0811 144.683 27.6362 140.984 27.6362C134.745 27.6362 130.701 23.3349 130.701 17.6275C130.701 11.9201 134.745 7.6189 140.68 7.6189C146.615 7.6189 150.175 12.1848 150.175 17.6606C150.175 18.2314 150.101 18.8435 150.027 19.3728H134.975C135.616 22.3424 138 23.8643 141.025 23.8643V23.8726ZM146.056 16.0394C145.489 12.7638 143.105 11.3577 140.647 11.3577C137.581 11.3577 135.501 13.1857 134.934 16.0394H146.048H146.056Z" fill="white"/>
<path d="M61.5347 0.679016H57.4492V4.79H61.5347V0.679016Z" fill="#215BEA"/>
<path d="M16.372 8.12344V8.29715C16.2734 11.1757 15.4842 18.3306 10.5931 22.6897C9.48338 21.7054 8.59558 20.5722 7.87219 19.3811H3.24414C5.77601 24.6997 9.31897 26.8834 9.54914 27.0158L10.5931 27.6362L11.6371 27.0158C11.9824 26.809 20.0301 21.8626 20.4493 8.30542V8.11517H16.372V8.12344Z" fill="white"/>
<path d="M5.57869 13.7564H1.36987C1.67403 15.2122 2.0686 16.5274 2.52894 17.7102H6.97614C6.3514 16.3868 5.9075 15.0302 5.58691 13.7564H5.57869Z" fill="#215BEA"/>
<path d="M4.81427 8.29715V8.12344H0.72876V8.31369C0.769861 9.65369 0.884946 10.9027 1.06579 12.0855H5.21706C4.93757 10.547 4.83893 9.2153 4.80605 8.30542L4.81427 8.29715Z" fill="#00AC42"/>
</g>
<defs>
<clipPath id="clip0_1464_133067">
<rect width="156" height="28" fill="white"/>
</clipPath>
</defs>
</svg>
